:SAMPLES-PER-SECOND 30
:FULLY-SPECIFIED
:DEGREES
99
root  -28.4388 39.746 22.6171 -176.978 -5.93141 168.737
RightUpLeg  6.93983 -5.40262 -1.69869
RightLeg  13.387 5.67537 0.791018
RightFoot  -20.3339 -1.31058 -14.8275
RightToes  2.32829e-010 0 -3.6325e-017
Spine  5.47738 2.92923 6.87288
Spine1  5.94991 5.64666 -9.52913
HEad  1.5092 -9.67491 1.92622
LeftShoulder1  8.08872 -11.3149 -47.6318
LeftArm  -8.75275 29.8959 -31.3816
LeftForeArm  24.933 -16.7019 -4.20391
LeftHand  -0.244104 0.0205437 5.32207
RightShoulder  6.84479 10.4207 42.8283
RightArm  15.5334 -5.73975 36.1227
RightForeArm  1.16351 34.2821 7.60219
RightHand  -0.778126 0.655738 -15.006
LeftUpLeg  -26.4036 0.950882 0.103212
LeftLeg  30.2971 1.92744 1.63931
LeftFoot  -5.82697 0.116956 -1.71151
LeftToes  -2.63786e-011 3.77076e-011 -4.2586e-012
100
root  -29.0395 39.6606 21.4926 -176.78 -3.78549 168.997
RightUpLeg  8.85298 -5.42303 -2.84654
RightLeg  12.4495 7.77174 0.828838
RightFoot  -20.6013 -1.3088 -14.3591
RightToes  2.32829e-010 0 -3.6325e-017
Spine  5.20566 2.84942 6.17586
Spine1  6.01807 5.32939 -9.19293
HEad  0.309217 -8.32775 1.26366
LeftShoulder1  8.10706 -11.3938 -47.4849
LeftArm  -7.21274 28.2531 -30.4364
LeftForeArm  24.5565 -18.1253 -4.06849
LeftHand  -0.244104 0.0205437 5.32207
RightShoulder  6.79411 10.3403 42.7536
RightArm  14.8423 -6.74707 35.2807
RightForeArm  -0.787755 34.5588 7.79002
RightHand  -0.766326 0.561926 -15.0061
LeftUpLeg  -26.8532 1.73015 -0.435552
LeftLeg  18.9328 0.111614 0.174204
LeftFoot  -4.61644 0.251309 -3.69624
LeftToes  -2.63786e-011 3.77076e-011 -4.2586e-012
101
root  -29.6168 39.5019 20.283 -176.833 -2.01328 169.327
RightUpLeg  11.0655 -5.42311 -3.98468
RightLeg  11.7219 9.36383 0.832706
RightFoot  -21.1558 -1.30064 -13.4241
RightToes  2.32829e-010 0 -3.6325e-017
Spine  5.12559 2.72795 5.53403
Spine1  6.18206 5.08055 -8.95895
HEad  -0.974563 -7.1237 0.956588
LeftShoulder1  8.04351 -11.396 -47.0988
LeftArm  -6.54811 26.6258 -29.1668
LeftForeArm  24.0154 -19.5302 -3.87215
LeftHand  -0.244104 0.0205437 5.32207
RightShoulder  6.8217 10.3548 42.8904
RightArm  14.2035 -7.88763 34.151
RightForeArm  -3.47058 33.7466 7.7149
RightHand  -0.786766 0.649692 -15.1844
LeftUpLeg  -26.6248 3.27963 -0.653867
LeftLeg  8.62911 2.24798 -1.69504
LeftFoot  -3.00188 0.546443 -7.28323
LeftToes  -2.63786e-011 3.77076e-011 -4.2586e-012
102
root  -30.2181 39.2172 18.9345 -177.148 -0.874207 169.89
RightUpLeg  13.4449 -5.46298 -4.99424
RightLeg  11.9072 10.6467 1.08375
RightFoot  -22.0456 -1.29773 -12.2092
RightToes  2.32829e-010 0 -3.6325e-017
Spine  5.02496 2.46543 5.25365
Spine1  6.4569 4.7399 -8.67304
HEad  -2.20617 -6.14799 0.989744
LeftShoulder1  7.96551 -11.3999 -46.6194
LeftArm  -7.38156 25.2368 -27.794
LeftForeArm  23.7885 -20.9482 -3.68837
LeftHand  -0.244104 0.0205437 5.32207
RightShoulder  6.86485 10.4161 42.9769
RightArm  13.7381 -8.95012 33.1566
RightForeArm  -5.9692 31.3595 7.20922
RightHand  -0.835311 0.930911 -15.415
LeftUpLeg  -26.2192 1.36564 0.720506
LeftLeg  2.18136 11.046 -4.56463
LeftFoot  -2.59315 0.6707 -8.54547
LeftToes  -2.63786e-011 3.77076e-011 -4.2586e-012
103
root  -30.83 38.874 17.4186 -177.565 -0.119446 170.506
RightUpLeg  15.8896 -4.96382 -5.75843
RightLeg  12.8254 11.4321 1.33217
RightFoot  -22.407 -1.20571 -10.8437
RightToes  2.32829e-010 0 -3.6325e-017
Spine  4.67896 2.25 4.97328
Spine1  6.91467 4.47594 -8.22745
HEad  -3.19 -5.45532 1.39447
LeftShoulder1  7.86888 -11.3713 -46.1291
LeftArm  -9.17945 24.0817 -26.4127
LeftForeArm  23.805 -22.3884 -3.66316
LeftHand  -0.244104 0.0205437 5.32207
RightShoulder  6.82745 10.3937 42.8007
RightArm  13.9699 -9.93938 32.4647
RightForeArm  -8.56542 27.4669 6.29263
RightHand  -0.906924 1.33303 -15.7474
LeftUpLeg  -26.645 1.41627 -0.204578
LeftLeg  2.0956 14.605 -5.15496
LeftFoot  -2.33791 0.546267 -6.79303
LeftToes  -2.63786e-011 3.77076e-011 -4.2586e-012
104
root  -31.4143 38.5248 15.741 -178.145 0.823441 170.759
RightUpLeg  18.3871 -3.22007 -6.54552
RightLeg  14.2545 11.4335 1.58323
RightFoot  -22.1877 -0.988736 -8.84177
RightToes  2.32829e-010 0 -3.6325e-017
Spine  4.2937 2.36449 3.85308
Spine1  7.22572 4.42012 -7.36614
HEad  -3.79593 -4.87776 2.1439
LeftShoulder1  7.75187 -11.2529 -45.7972
LeftArm  -11.5955 23.2203 -24.927
LeftForeArm  24.0817 -23.8666 -3.8365
LeftHand  -0.244104 0.0205437 5.32207
RightShoulder  6.73126 10.2783 42.5354
RightArm  14.0356 -10.9584 31.8235
RightForeArm  -10.2674 22.2055 5.79617
RightHand  -0.985938 1.74438 -16.1431
LeftUpLeg  -27.7915 3.09001 -2.92513
LeftLeg  7.4808 11.385 -2.94716
LeftFoot  0.316695 0.466557 -4.6198
LeftToes  -2.63786e-011 3.77076e-011 -4.2586e-012
